Coordinates
version=1
nRows=49
nColumns=12
inDegrees=yes

Units are S.I. units (second, meters, Newtons, ...)
Angles are in degrees

endheader
time	SC_y	SC_z	SC_x	AC_y	AC_z	AC_x	GH_y	GH_z	GH_yy	EL_x	PS_y
       0.0              -38.73          13.49         0.8993          53.16         -11.89        -0.5292         -19.83          43.98         -38.49          91.95          87.88
  0.006602              -38.73          13.49         0.9068          53.16         -11.89        -0.5269         -19.84          43.98         -38.48          91.95          87.88
    0.0132              -38.72           13.5         0.9148          53.16         -11.89        -0.5244         -19.84          43.98         -38.48          91.96          87.88
   0.01981              -38.72           13.5         0.9234          53.16         -11.89        -0.5218         -19.85          43.99         -38.48          91.96          87.89
   0.02641              -38.72           13.5         0.9324          53.16         -11.89         -0.519         -19.86          43.99         -38.48          91.97          87.89
   0.03301              -38.72           13.5         0.9421          53.16         -11.89         -0.516         -19.86           44.0         -38.47          91.97          87.89
   0.03961              -38.71          13.51         0.9524          53.16         -11.89        -0.5128         -19.87           44.0         -38.47          91.98          87.89
   0.04621              -38.71          13.51         0.9635          53.16          -11.9        -0.5094         -19.88          44.01         -38.47          91.98          87.89
   0.05282              -38.71          13.52         0.9753          53.16          -11.9        -0.5058         -19.89          44.01         -38.46          91.99           87.9
   0.05942               -38.7          13.52          0.988          53.16          -11.9        -0.5018          -19.9          44.02         -38.46           92.0           87.9
   0.06602               -38.7          13.53          1.002          53.16          -11.9        -0.4976         -19.91          44.03         -38.46          92.01           87.9
   0.07262              -38.69          13.53          1.016          53.16          -11.9        -0.4931         -19.92          44.03         -38.45          92.02           87.9
   0.07922              -38.69          13.54          1.032          53.16          -11.9        -0.4882         -19.93          44.04         -38.45          92.02          87.91
   0.08583              -38.69          13.54          1.049          53.16         -11.91        -0.4829         -19.95          44.05         -38.44          92.03          87.91
   0.09243              -38.68          13.55          1.068          53.16         -11.91        -0.4772         -19.96          44.06         -38.44          92.05          87.91
   0.09903              -38.67          13.55          1.088          53.16         -11.91        -0.4711         -19.98          44.07         -38.43          92.06          87.92
    0.1056              -38.67          13.56           1.11          53.16         -11.91        -0.4643         -19.99          44.08         -38.42          92.07          87.92
    0.1122              -38.66          13.57          1.133          53.16         -11.92         -0.457         -20.01          44.09         -38.42          92.08          87.92
    0.1188              -38.65          13.58          1.159          53.16         -11.92         -0.449         -20.03           44.1         -38.41           92.1          87.93
    0.1254              -38.64          13.59          1.188          53.16         -11.92        -0.4402         -20.05          44.12          -38.4          92.11          87.94
     0.132              -38.64           13.6          1.219          53.16         -11.93        -0.4306         -20.08          44.13         -38.39          92.13          87.94
    0.1386              -38.63          13.61          1.253          53.16         -11.93          -0.42          -20.1          44.15         -38.38          92.15          87.95
    0.1452              -38.61          13.62          1.291          53.15         -11.94        -0.4084         -20.13          44.17         -38.37          92.17          87.95
    0.1518               -38.6          13.64          1.333          53.15         -11.94        -0.3954         -20.16          44.19         -38.36           92.2          87.96
    0.1584              -38.59          13.66           1.38          53.15         -11.95         -0.381          -20.2          44.21         -38.35          92.23          87.97
    0.1651              -38.57          13.67          1.432          53.15         -11.96        -0.3649         -20.24          44.23         -38.33          92.26          87.98
    0.1717              -38.56          13.69           1.49          53.15         -11.96        -0.3469         -20.29          44.26         -38.31          92.29          87.99
    0.1783              -38.54          13.72          1.556          53.15         -11.97        -0.3267         -20.34           44.3         -38.29          92.33           88.0
    0.1849              -38.51          13.74           1.63          53.15         -11.98        -0.3038         -20.39          44.33         -38.27          92.37          88.02
    0.1915              -38.49          13.77          1.714          53.14         -11.99        -0.2778         -20.46          44.37         -38.25          92.42          88.03
    0.1981              -38.46           13.8           1.81          53.14         -12.01        -0.2482         -20.53          44.42         -38.22          92.48          88.05
    0.2047              -38.43          13.84           1.92          53.14         -12.02        -0.2141         -20.62          44.47         -38.19          92.54          88.07
    0.2113              -38.39          13.88          2.048          53.14         -12.04        -0.1749         -20.72          44.53         -38.15          92.61           88.1
    0.2179              -38.35          13.94          2.196          53.13         -12.05        -0.1292         -20.83          44.61         -38.11           92.7          88.13
    0.2245               -38.3          13.99          2.369          53.13         -12.08       -0.07579         -20.96          44.69         -38.06           92.8          88.16
    0.2311              -38.24          14.06          2.573          53.12          -12.1       -0.01282         -21.12          44.79          -38.0          92.92           88.2
    0.2377              -38.17          14.15          2.815          53.12         -12.14        0.06201         -21.31          44.91         -37.93          93.06          88.24
    0.2443              -38.08          14.25          3.106          53.11         -12.17         0.1517         -21.53          45.05         -37.84          93.23           88.3
    0.2509              -37.98          14.37          3.457           53.1         -12.22         0.2602          -21.8          45.22         -37.74          93.43          88.36
    0.2575              -37.85          14.52          3.887          53.09         -12.27         0.3928         -22.13          45.43         -37.61          93.68          88.44
    0.2641              -37.69           14.7          4.417          53.08         -12.34         0.5564         -22.54          45.69         -37.46          93.99          88.54
    0.2707               -37.5          14.92          5.078          53.06         -12.43         0.7604         -23.05          46.01         -37.27          94.37          88.67
    0.2773              -37.25          15.21          5.911          53.04         -12.54          1.017         -23.69          46.41         -37.03          94.86          88.83
    0.2839              -36.94          15.57           6.97          53.02         -12.67          1.344         -24.51          46.93         -36.72          95.47          89.03
    0.2905              -36.54          16.04          8.325          52.99         -12.85          1.762         -25.55          47.59         -36.32          96.26          89.28
    0.2971              -36.03          16.64          10.06          52.94         -13.07          2.299         -26.89          48.44         -35.82          97.27          89.61
    0.3037              -35.38           17.4          12.28          52.89         -13.36          2.984         -28.61          49.52         -35.17          98.55          90.03
    0.3103              -34.55          18.36          15.08          52.82         -13.72          3.846         -30.76          50.88         -34.36          100.2          90.55
    0.3169              -33.55          19.53          18.48          52.74         -14.16          4.897         -33.38          52.53         -33.36          102.2           91.2
